<svg xmlns="http://www.w3.org/2000/svg" xmlns:xlink="http://www.w3.org/1999/xlink" width="89.6601" height="91.3094" viewBox="0 0 89.6601 91.3094">
  <defs>
    <linearGradient id="linear-gradient" x1="2.0682" y1="47.2877" x2="71.6681" y2="47.2877" gradientTransform="translate(2.0288 88.4563) rotate(-94.0578)" gradientUnits="userSpaceOnUse">
      <stop offset="0" stop-color="#2d3d54"/>
      <stop offset="1" stop-color="#2d3d54"/>
    </linearGradient>
    <linearGradient id="linear-gradient-2" x1="13.2363" y1="71.6051" x2="72.1417" y2="12.6997" gradientUnits="userSpaceOnUse">
      <stop offset="0" stop-color="#2d3d54"/>
      <stop offset="1" stop-color="#141f36"/>
    </linearGradient>
    <linearGradient id="linear-gradient-3" x1="55.1949" y1="53.558" x2="76.0042" y2="32.7486" gradientUnits="userSpaceOnUse">
      <stop offset="0" stop-color="#364254"/>
      <stop offset="1" stop-color="#577290"/>
    </linearGradient>
    <linearGradient id="linear-gradient-4" x1="-244.9469" y1="53.5544" x2="-265.7526" y2="32.7488" gradientTransform="matrix(-1, 0, 0, 1, -235.5715, 0)" gradientUnits="userSpaceOnUse">
      <stop offset="0.0075" stop-color="#364254"/>
      <stop offset="0.2238" stop-color="#43546b"/>
      <stop offset="0.4877" stop-color="#4e657f"/>
      <stop offset="0.7484" stop-color="#556f8c"/>
      <stop offset="1" stop-color="#577290"/>
    </linearGradient>
    <linearGradient id="linear-gradient-5" x1="26.4477" y1="59.3949" x2="58.9329" y2="26.9097" xlink:href="#linear-gradient-3"/>
    <linearGradient id="linear-gradient-6" x1="9.302" y1="44.2551" x2="78.901" y2="44.2551" xlink:href="#linear-gradient"/>
    <linearGradient id="linear-gradient-7" x1="56.0026" y1="72.6587" x2="87.3995" y2="72.6587" xlink:href="#linear-gradient-3"/>
    <linearGradient id="linear-gradient-8" x1="56.6101" y1="73.7711" x2="66.1676" y2="73.7711" xlink:href="#linear-gradient-3"/>
  </defs>
  <g id="Camada_2" data-name="Camada 2">
    <g id="ilustra">
      <path d="M6.8842,76.7733c8.5226,10.1218,32.4722,4.0291,53.3877-13.5812S91.2708,23.02,82.7447,12.8959l2.6115-2.199a16.6918,16.6918,0,0,1,3.747,9.787c.9071,12.7556-9.0849,30.5442-26.6317,45.32C39.7372,84.9457,14.1725,90.73,4.2726,78.9718Z" stroke="#141f36" stroke-miterlimit="10" fill="url(#linear-gradient)"/>
      <g>
        <circle cx="42.689" cy="42.1524" r="41.6524" stroke="#141f36" stroke-linecap="round" stroke-linejoin="round" fill="url(#linear-gradient-2)"/>
        <path d="M42.5842,1.9142a40.2383,40.2383,0,1,0,0,80.4765" fill="none" stroke="#ffcc63" stroke-linecap="round" stroke-linejoin="round" stroke-width="0.5"/>
        <circle cx="46.4517" cy="39.8112" r="36.4655" fill="none" stroke="#141f36" stroke-linecap="round" stroke-linejoin="round" stroke-width="0.5"/>
        <path d="M71.701,12.4132C58.32,15.3012,44.7284,26.0742,36.2874,42.0991,29.844,54.3315,27.6219,67.308,29.2379,78.4" fill="none" stroke="#141f36" stroke-linecap="round" stroke-linejoin="round" stroke-width="0.5"/>
        <path d="M33.6044,70.9978c2.504.2816,1.4662-3.6385-.66-3.9178S31.0165,70.7067,33.6044,70.9978Z" fill="none" stroke="#141f36" stroke-linecap="round" stroke-linejoin="round" stroke-width="0.5"/>
        <path d="M13.0691,64.4927C11.8125,65.61,15.4834,69.804,16.57,69.08S14.1555,63.527,13.0691,64.4927Z" fill="none" stroke="#141f36" stroke-linecap="round" stroke-linejoin="round" stroke-width="0.5"/>
        <path d="M9.7717,23.1015c-1.6-.6858-3.358,4.2843-2.0843,5.0949S11.3928,23.7962,9.7717,23.1015Z" fill="none" stroke="#141f36" stroke-linecap="round" stroke-linejoin="round" stroke-width="0.5"/>
      </g>
      <g>
        <g>
          <path d="M60.9047,58.76a1.1022,1.1022,0,0,1-.9317-.4453,1.1772,1.1772,0,0,1-.0771-1.1089L65.3178,43.18l-5.417-14.0767a1.1791,1.1791,0,0,1,.0757-1.1123,1.1027,1.1027,0,0,1,.9321-.4458h9.2749a1.38,1.38,0,0,1,1.3545.95l5.6,14.5493a.5.5,0,0,1-.001.3609L71.5258,57.8334A1.37,1.37,0,0,1,70.18,58.76Z" fill="url(#linear-gradient-3)"/>
          <path d="M70.1835,28.045a.8745.8745,0,0,1,.88.6078l5.6072,14.5709L71.06,57.6521a.8746.8746,0,0,1-.88.6077H60.9049c-.4743,0-.7449-.3372-.5412-.8783l5.49-14.2014L60.3673,28.9233c-.2038-.541.0667-.8783.541-.8783h9.2752m0-1H60.9083a1.594,1.594,0,0,0-1.3427.6609,1.66,1.66,0,0,0-.1338,1.57l5.35,13.9035L59.431,57.021a1.6666,1.6666,0,0,0,.1311,1.578,1.595,1.595,0,0,0,1.3428.6607H70.18a1.8657,1.8657,0,0,0,1.8283-1.2908L77.6027,43.586a1,1,0,0,0,.0012-.7214L71.9967,28.2937a1.85,1.85,0,0,0-1.8132-1.2485Z" fill="#141f36"/>
        </g>
        <polyline points="61.752 29.293 67.187 43.152 61.632 57.496" fill="none" stroke="#ffcc63" stroke-linecap="round" stroke-linejoin="round" stroke-width="0.5"/>
      </g>
      <g>
        <g>
          <path d="M15.1981,58.76a1.3789,1.3789,0,0,1-1.3545-.9493L8.2416,43.4047a.5.5,0,0,1-.001-.3609L13.8475,28.473a1.3719,1.3719,0,0,1,1.3467-.9282H24.47a1.1026,1.1026,0,0,1,.9312.4453A1.177,1.177,0,0,1,25.4784,29.1L20.06,43.18l5.42,14.022a1.1777,1.1777,0,0,1-.0752,1.1123,1.1029,1.1029,0,0,1-.9322.4458Z" fill="url(#linear-gradient-4)"/>
          <path d="M24.4694,28.045c.4743,0,.7451.3373.5412.8783L19.5246,43.18l5.49,14.2014c.2038.5411-.0667.8783-.5411.8783H15.1979a.8744.8744,0,0,1-.88-.6077L8.7072,43.2237l5.6071-14.5709a.8746.8746,0,0,1,.88-.6078h9.2749m0-1H15.1945a1.8659,1.8659,0,0,0-1.8284,1.2908L7.7741,42.8646a1,1,0,0,0,.0012.7214l5.6106,14.4284a1.849,1.849,0,0,0,1.812,1.2453H24.473a1.5941,1.5941,0,0,0,1.3428-.6609,1.66,1.66,0,0,0,.1338-1.57l-5.3535-13.85,5.3476-13.8969a1.6647,1.6647,0,0,0-.1313-1.5762,1.5948,1.5948,0,0,0-1.343-.661Z" fill="#141f36"/>
        </g>
        <polyline points="14.984 29.323 9.548 43.182 15.104 57.526" fill="none" stroke="#ffcc63" stroke-linecap="round" stroke-linejoin="round" stroke-width="0.5"/>
      </g>
      <g>
        <g>
          <path d="M30.535,63.018a1.0117,1.0117,0,0,1-.8554-.4117,1.0739,1.0739,0,0,1-.0747-1.0141L44.1566,24.1244a1.2409,1.2409,0,0,1,1.2178-.8379h9.4712a1.0141,1.0141,0,0,1,.856.4121,1.0745,1.0745,0,0,1,.0737,1.0142L41.2235,62.18a1.24,1.24,0,0,1-1.2173.8379Z" fill="url(#linear-gradient-5)"/>
          <path d="M54.8456,23.7867c.4053,0,.6362.288.4622.75l-14.55,37.4625a.7467.7467,0,0,1-.7517.519H30.535c-.405,0-.6362-.288-.4621-.75l14.55-37.4624a.7468.7468,0,0,1,.7517-.519h9.4712m0-1H45.3744a1.7354,1.7354,0,0,0-1.7,1.202L29.1408,61.4062a1.5856,1.5856,0,0,0,.1274,1.4844,1.5054,1.5054,0,0,0,1.2668.6274h9.4712a1.7355,1.7355,0,0,0,1.7-1.2021L56.24,24.8987a1.5858,1.5858,0,0,0-.1275-1.4845,1.5051,1.5051,0,0,0-1.2668-.6273Z" fill="#141f36"/>
        </g>
        <line x1="45.55" y1="24.6948" x2="31.4487" y2="61.583" fill="none" stroke="#ffcc63" stroke-linecap="round" stroke-linejoin="round" stroke-width="0.5"/>
      </g>
      <g>
        <path d="M6.8842,76.7733,4.2726,78.9718h0c-4.86-5.773-5.0292-14.7777-.4784-25.354C8.1817,43.4247,16.4779,32.859,27.1574,23.8662,49.8916,4.7241,75.4553-1.06,85.3562,10.6969l-2.6115,2.199C74.2221,2.7747,50.2724,8.8673,29.357,26.4777c-10.2811,8.657-18.2458,18.7752-22.4265,28.49C4.6637,60.2359,3.6714,65,3.9552,69.0005a13.2389,13.2389,0,0,0,2.929,7.7728h0M5.5784,77.8725l-.0008-.0111Z" stroke="#141f36" stroke-miterlimit="10" fill="url(#linear-gradient-6)"/>
        <path d="M5.6391,79.2915h0C.83,73.58.6632,64.67,5.1658,54.2061,9.5068,44.121,17.7151,33.6672,28.2815,24.77c9.7442-8.2046,20.0138-13.9289,29.3214-16.8365" fill="none" stroke="#ffcc63" stroke-linecap="round" stroke-linejoin="round" stroke-width="0.5"/>
        <line x1="0.8527" y1="71.6032" x2="4.0956" y2="70.4265" fill="none" stroke="#141f36" stroke-linecap="round" stroke-linejoin="round" stroke-width="0.5"/>
        <line x1="1.4706" y1="61.8599" x2="4.3693" y2="62.1991" fill="none" stroke="#141f36" stroke-linecap="round" stroke-linejoin="round" stroke-width="0.5"/>
      </g>
      <g>
        <path d="M56.0026,56.2977V89.02a1.7864,1.7864,0,0,0,3.1668,1.1339L66.6884,81a1.786,1.786,0,0,1,1.269-.6491l17.7644-1.11a1.7864,1.7864,0,0,0,.97-3.2048l-27.8214-21.16A1.7864,1.7864,0,0,0,56.0026,56.2977Z" stroke="#141f36" stroke-linecap="round" stroke-linejoin="round" fill="url(#linear-gradient-7)"/>
        <path d="M56.61,57.9547v30.981a1.1646,1.1646,0,0,0,2.0809.7187l7.2284-9.2162a1.1646,1.1646,0,0,0,.1671-1.1456L57.6032,57.7661A.5145.5145,0,0,0,56.61,57.9547Z" opacity="0.8" fill="url(#linear-gradient-8)"/>
        <line x1="57.4369" y1="56.1856" x2="57.4369" y2="88.3989" fill="none" stroke="#ffcc63" stroke-linecap="round" stroke-linejoin="round" stroke-width="0.5"/>
      </g>
    </g>
  </g>
</svg>
